<svg xmlns="http://www.w3.org/2000/svg" viewBox="0 0 1024 1024" role="img" aria-labelledby="title description">
  <title id="title">SwiftMenu Logo</title>
  <desc id="description">清透科技蓝圆角方形中，冰白色光标指向三行菜单，交汇处有一枚浅青色闪光。</desc>

  <rect width="1024" height="1024" rx="230" fill="#2F80ED"/>

  <path
    fill="#F7FBFF"
    d="M410 257H701C759 257 806 304 806 362V414C806 422 800 427 792 427H460C427 427 400 400 400 367V271C400 263 404 257 410 257Z"
  />
  <rect x="430" y="465" width="376" height="99" rx="14" fill="#F7FBFF"/>
  <path
    fill="#F7FBFF"
    d="M444 602H792C800 602 806 608 806 616V650C806 700 765 739 715 739H456C447 739 441 733 440 724L430 616C429 608 435 602 444 602Z"
  />

  <path
    fill="#F7FBFF"
    d="M371 474C374 473 377 476 378 482L403 743C404 750 397 754 391 750L336 708C331 704 327 706 325 712L302 771C296 788 278 792 264 786L255 782C243 776 240 762 245 749L267 687C269 682 265 678 260 678L190 679C181 679 179 668 185 662L363 480C366 477 369 475 371 474Z"
  />

  <path
    fill="#35D6E8"
    d="M400 365C400 400 429 427 464 427C429 427 400 455 400 491C400 455 372 427 336 427C372 427 400 400 400 365Z"
  />
</svg>
